# xmcd
#
# Track frame offsets:
#	182
#	19642
#	32402
#	48285
#	66115
#	82282
#	100872
#	119412
#	134017
#	149622
#
# Disc length: 2295 seconds
# Revision: 5
# Processed by: cddbd v1.5.2PL0 Copyright (c) Steve Scherf et al.
# Submitted via: dBpowerAMP V12.0
#
DISCID=8d08f50a
DTITLE=Lila McCann - Lila
DYEAR=1997
DGENRE=Country
TTITLE0=I Wanna Fall In Love
TTITLE1=Just One Little Kiss
TTITLE2=Almost Over You
TTITLE3=Down Came A Blackbird
TTITLE4=Already Somebody's Lover
TTITLE5=Changing Faces
TTITLE6=Yippy Ky Yay
TTITLE7=I Feel For You
TTITLE8=Saddle My Dreams
TTITLE9=A Rain Of Angels
EXTD=
EXTT0=
EXTT1=
EXTT2=
EXTT3=
EXTT4=
EXTT5=
EXTT6=
EXTT7=
EXTT8=
EXTT9=
PLAYORDER=
